<svg xmlns="http://www.w3.org/2000/svg" fill="none" viewBox="0 0 150 30" height="30" width="150">
<g clip-path="url(#clip0_1709_4985)">
<path fill="white" d="M89.8102 1.02562H84.9573L83.8976 8.11161C83.6357 9.96511 83.5048 11.7514 83.5048 13.4706C83.5048 14.6799 83.5457 15.822 83.6275 16.897L80.3214 1.02562H73.439L70.497 21.3786H75.3499L76.3196 14.7905C76.6224 12.7592 76.7738 10.712 76.7738 8.64118C76.7738 7.54647 76.7452 6.50313 76.6838 5.50722L79.8958 21.3786H86.8682L89.8102 1.02562ZM57.5548 1.02562L54.6128 21.3786H67.7105L68.2547 17.3001H60.7054L61.3724 13.2334H67.5591L68.0747 9.1668H61.888L62.5263 5.10016H69.5928L70.7466 1.02562H57.5589H57.5548ZM41.6746 1.02562L38.7327 21.3786H51.8304L52.3746 17.2408H44.8253L45.4923 13.2295H51.679L52.1946 9.1668H46.0078L46.3965 5.10016H53.463L54.8624 1.02562H41.6746ZM27.8813 4.80376H29.4566C30.4059 4.80376 31.1138 4.96975 31.5803 5.30172C32.0426 5.63369 32.2759 6.1514 32.2759 6.85487C32.2759 7.77174 32.014 8.55819 31.4861 9.21028C30.9583 9.86631 30.1236 10.1904 28.9697 10.1904H27.0916L27.8813 4.80376ZM37.9757 6.5308C37.9757 4.83143 37.3046 3.49169 35.9584 2.50368C34.6123 1.51962 32.6687 1.02562 30.1236 1.02562H22.9057L19.9637 21.3786H25.4835L26.576 13.8816H28.2127L31.1834 21.3786H37.186L33.3356 13.0042C35.1155 12.202 36.3308 11.2772 36.9896 10.222C37.6443 9.1668 37.9757 7.93772 37.9757 6.5308ZM12.5126 0.5C9.80389 0.5 7.56569 1.14813 5.79805 2.44835C4.03041 3.74857 2.73741 5.40447 1.91906 7.42791C1.1007 9.4474 0.691528 11.5736 0.691528 13.7986C0.691528 16.4741 1.38713 18.4975 2.78242 19.8768C4.17771 21.2521 6.28906 21.9398 9.12056 21.9398C10.434 21.9398 11.7884 21.7461 13.1837 21.3549C14.579 20.9636 15.8638 20.4182 17.034 19.7148L18.4907 9.5541H10.2744L10.2131 13.3006H12.6067L12.0012 17.4582C11.1133 17.8297 10.2417 18.0154 9.39471 18.0154C8.36359 18.0154 7.60252 17.7269 7.10742 17.1499C6.61231 16.5729 6.36271 15.6047 6.36271 14.2373C6.36271 12.6367 6.54275 11.0875 6.90692 9.59757C7.27109 8.10371 7.9094 6.85882 8.81777 5.86291C9.72614 4.86699 10.9291 4.36904 12.4267 4.36904C13.196 4.36904 13.867 4.48365 14.4439 4.70496C15.0209 4.93023 15.6306 5.29381 16.2771 5.80363L19.3091 3.16762C18.5193 2.34955 17.5619 1.69747 16.4285 1.21927C15.295 0.741074 13.9939 0.5 12.5167 0.5"></path>
<path fill="white" d="M146.874 21.3668H95.379L98.4315 1.0376H150L146.874 21.3668ZM97.1139 19.9164H145.577L148.257 2.48799H99.7286L97.1139 19.9164Z"></path>
<path fill="white" d="M138.719 5.73633C137.377 5.73633 136.264 6.09201 135.38 6.80733C134.5 7.51869 133.854 8.41581 133.449 9.49471C133.04 10.5736 132.839 11.6683 132.839 12.7749C132.839 14.2332 133.232 15.3595 134.022 16.1499C134.807 16.9443 135.871 17.3395 137.201 17.3395C137.962 17.3395 138.658 17.2091 139.292 16.9482C139.926 16.6874 140.483 16.3515 140.969 15.9365L139.93 14.3873C139.513 14.6837 139.124 14.9129 138.764 15.075C138.408 15.2331 138.023 15.3161 137.614 15.3161C136.976 15.3161 136.481 15.1105 136.129 14.6956C135.777 14.2806 135.601 13.6404 135.601 12.7788C135.601 12.0359 135.703 11.2692 135.908 10.4906C136.113 9.70812 136.452 9.04418 136.923 8.49485C137.397 7.94551 138.007 7.67282 138.756 7.67282C139.132 7.67282 139.468 7.73606 139.762 7.85462C140.061 7.97713 140.364 8.15892 140.671 8.40395L142.107 7.0484C141.293 6.175 140.163 5.74028 138.719 5.74028M125.085 6.00507L123.481 17.0628H130.405L130.67 15.1817H126.423L126.836 12.356H130.306L130.556 10.5222H127.086L127.483 7.87438H131.448L132.008 6.00902H125.085V6.00507ZM117.646 11.4944H116.673L117.2 7.87042H118.174C118.759 7.87042 119.197 7.97713 119.488 8.19054C119.778 8.40395 119.925 8.74382 119.925 9.21016C119.925 9.82668 119.754 10.3602 119.414 10.8147C119.074 11.2692 118.485 11.4944 117.646 11.4944ZM118.436 6.00507H114.803L113.199 17.0628H115.858L116.386 13.3756H117.642C118.808 13.3756 119.77 13.1701 120.527 12.7551C121.28 12.3402 121.828 11.8066 122.172 11.1585C122.511 10.5104 122.683 9.81878 122.683 9.0837C122.683 8.07198 122.315 7.30528 121.574 6.78757C120.834 6.26985 119.79 6.00507 118.436 6.00507ZM108.329 5.73633C107.36 5.73633 106.541 5.90231 105.874 6.23033C105.207 6.55835 104.708 6.98912 104.381 7.51474C104.049 8.04036 103.886 8.5976 103.886 9.1825C103.886 9.91758 104.123 10.5301 104.598 11.0162C105.072 11.5063 105.85 11.9252 106.926 12.2769C107.609 12.5101 108.08 12.7393 108.338 12.9646C108.595 13.1899 108.726 13.4823 108.726 13.8419C108.726 14.3083 108.546 14.6758 108.19 14.9446C107.834 15.2093 107.339 15.3437 106.713 15.3437C105.645 15.3437 104.745 14.9801 104.021 14.2569L102.482 15.7271C102.957 16.2171 103.538 16.6084 104.225 16.9008C104.913 17.1933 105.723 17.3395 106.648 17.3395C107.773 17.3395 108.698 17.1498 109.43 16.7744C110.163 16.395 110.699 15.9128 111.034 15.324C111.37 14.7351 111.537 14.1067 111.537 13.4467C111.537 12.6366 111.292 11.9884 110.801 11.4984C110.31 11.0083 109.577 10.6092 108.595 10.3009C107.847 10.0559 107.339 9.83854 107.073 9.64489C106.807 9.45519 106.676 9.19831 106.676 8.87819C106.676 8.49485 106.832 8.19449 107.147 7.97713C107.462 7.75977 107.883 7.64911 108.411 7.64911C109.291 7.64911 110.064 7.95342 110.723 8.55808L112.143 7.18672C111.161 6.21848 109.888 5.73633 108.325 5.73633"></path>
<path fill="white" d="M0.196405 28.1799L0 29.4998L52.3459 29.1442L52.6446 27.1958L0.196405 28.1799Z"></path>
<path fill="white" d="M54.8624 27.1525L54.5637 29.1324L88.8077 28.9348L89.1719 26.5083L54.8624 27.1525Z"></path>
<path fill="white" d="M91.4673 26.4651L91.0336 28.9232L145.818 28.611L146.297 25.4336L91.4673 26.4651Z"></path>
</g>
<defs>
<clipPath id="clip0_1709_4985">
<rect transform="translate(0 0.5)" fill="white" height="29" width="150"></rect>
</clipPath>
</defs>
</svg>
